# xmcd
#
# Track frame offsets: 
#        150
#        17081
#        33559
#        50282
#        72283
#        86516
#        103539
#        120979
#        141291
#        161321
#        179674
#        197230
#
# Disc length: 2863 seconds
#
# Revision: 0
# Processed by: cddbd v1.5.2PL0 Copyright (c) Steve Scherf et al.
# Submitted via: ExactAudioCopy v0.99pb4
#
DISCID=9e0b2d0c
DTITLE=Dixie Chicks - Playlist: The Very Best Of
DYEAR=2010
DGENRE=Country
TTITLE0=Wide Open Spaces
TTITLE1=You Were Mine
TTITLE2=Sin Wagon
TTITLE3=Cowboy Take Me Away
TTITLE4=Let Him Fly
TTITLE5=Long Time Gone
TTITLE6=Landslide
TTITLE7=Truth No
TTITLE8=The Long Way Around
TTITLE9=Easy Silence
TTITLE10=Not Ready To Make Nice
TTITLE11=Lubbock or Leave it
EXTD=
EXTT0=
EXTT1=
EXTT2=
EXTT3=
EXTT4=
EXTT5=
EXTT6=
EXTT7=
EXTT8=
EXTT9=
EXTT10=
EXTT11=
PLAYORDER=
